# xmcd
#
# Track frame offsets: 
#        150
#        10857
#        26727
#        43557
#        59199
#        74205
#        89473
#        97850
#        112672
#        120817
#
# Disc length: 1817 seconds
#
# Revision: 0
# Processed by: cddbd v1.5.2PL0 Copyright (c) Steve Scherf et al.
# Submitted via: ExactAudioCopy v1.0b1
#
DISCID=7d07170a
DTITLE=The Slow Poisoner - Lost Hills
DYEAR=2011
DGENRE=Country
TTITLE0=Almighty Powerful Crystal Magnetic Eye O' The Lord
TTITLE1=Flaming Arrow
TTITLE2=Snakes in Her Hair
TTITLE3=Sinister Minister
TTITLE4=Would You Lend a Hand to a Man in Quicksand Sinking Down?
TTITLE5=Mint Julep
TTITLE6=The Poisoner's Lament
TTITLE7=Spanish Moss
TTITLE8=Don't Hang Me Too High
TTITLE9=Lost Hills
EXTD=
EXTT0=
EXTT1=
EXTT2=
EXTT3=
EXTT4=
EXTT5=
EXTT6=
EXTT7=
EXTT8=
EXTT9=
PLAYORDER=
